<svg width="8" height="14" viewBox="0 0 8 14" fill="none" xmlns="http://www.w3.org/2000/svg">
    <path d="M7.95628 4.06559C7.95628 1.88006 6.19124 0.10202 4.02186 0.10202C1.84653 0.10202 0.0582886 1.89084 0.0582886 4.06559C0.0582886 6.08838 1.60414 7.75926 3.5847 7.97597V10.623H2.27322C2.0318 10.623 1.83607 10.8188 1.83607 11.0601C1.83607 11.3016 2.0318 11.4973 2.27322 11.4973H3.5847V12.8088C3.5847 13.0502 3.78043 13.2459 4.02186 13.2459C4.26329 13.2459 4.45902 13.0502 4.45902 12.8088V11.4973H5.77049C6.01192 11.4973 6.20765 11.3016 6.20765 11.0601C6.20765 10.8188 6.01192 10.623 5.77049 10.623H4.45902V7.97559C6.42349 7.75742 7.95628 6.08727 7.95628 4.06559ZM0.932606 4.06559C0.932606 2.36216 2.31846 0.976337 4.02186 0.976337C5.70917 0.976337 7.08197 2.36216 7.08197 4.06559C7.08197 5.75293 5.70917 7.1257 4.02186 7.1257C2.31846 7.1257 0.932606 5.75293 0.932606 4.06559Z" fill="black"/>
</svg>
