<svg width="16" height="16" viewBox="0 0 16 16" fill="none" xmlns="http://www.w3.org/2000/svg">
    <path d="M3.75 11.2026V13.1562H2.34375C2.08466 13.1562 1.875 13.3659 1.875 13.625C1.875 13.8841 2.08466 14.0938 2.34375 14.0938H3.75V15.5312C3.75 15.7903 3.95966 16 4.21875 16C4.47784 16 4.6875 15.7903 4.6875 15.5312V14.0938H6.09375C6.35284 14.0938 6.5625 13.8841 6.5625 13.625C6.5625 13.3659 6.35284 13.1562 6.09375 13.1562H4.6875V11.2045C5.00634 11.1636 5.31772 11.0989 5.61294 10.9946C5.34387 10.7707 5.09978 10.5186 4.88097 10.2452C4.66697 10.2892 4.44556 10.3125 4.21875 10.3125C2.40966 10.3125 0.9375 8.84034 0.9375 7.03125C0.9375 5.22216 2.40966 3.75 4.21875 3.75C6.08838 3.75 7.5 5.34472 7.5 7.03125C7.5 7.57422 7.35472 8.07912 7.12016 8.53072C7.32506 8.77441 7.57562 8.97441 7.86266 9.11866C8.21828 8.5005 8.4375 7.79416 8.4375 7.03125C8.4375 4.857 6.64937 2.8125 4.21875 2.8125C1.89241 2.8125 0 4.70491 0 7.03125C0 9.19709 1.64641 10.966 3.75 11.2026Z" fill="black"/>
    <path d="M15.5312 0H12.7188C12.4597 0 12.25 0.209656 12.25 0.46875C12.25 0.727844 12.4597 0.9375 12.7188 0.9375H14.3997L11.5249 3.74978C10.8031 3.17241 9.90041 2.8125 8.90625 2.8125C8.41525 2.8125 7.95072 2.91297 7.51206 3.06787C7.78113 3.29184 8.02522 3.54391 8.24403 3.81734C8.45803 3.77328 8.67944 3.75 8.90625 3.75C10.7153 3.75 12.1875 5.22216 12.1875 7.03125C12.1875 8.84034 10.7153 10.3125 8.90625 10.3125C7.04928 10.3125 5.625 8.73528 5.625 7.03125C5.625 6.48828 5.77028 5.98338 6.00484 5.53178C5.79994 5.28809 5.54938 5.08809 5.26234 4.94384C4.90672 5.562 4.6875 6.26834 4.6875 7.03125C4.6875 9.22669 6.52366 11.25 8.90625 11.25C11.2326 11.25 13.125 9.35759 13.125 7.03125C13.125 6.03709 12.7651 5.13441 12.1877 4.41262L15.0625 1.60034V3.28125C15.0625 3.54034 15.2722 3.75 15.5312 3.75C15.7903 3.75 16 3.54034 16 3.28125V0.46875C16 0.212281 15.7898 0 15.5312 0V0Z" fill="black"/>
</svg>
