<svg width="8" height="14" viewBox="0 0 8 14" fill="none" xmlns="http://www.w3.org/2000/svg">
    <path d="M4.42804 5.33799V1.51181L5.44337 2.52713C5.61627 2.70003 5.89662 2.70006 6.06958 2.52713C6.24254 2.3542 6.24251 2.07384 6.06958 1.90091L4.29836 0.129697C4.12549 -0.0432325 3.84511 -0.0432325 3.67215 0.129697L1.90093 1.90091C1.72803 2.07382 1.72803 2.35417 1.90093 2.52713C2.07383 2.70003 2.35421 2.70003 2.52714 2.52713L3.54244 1.51181V5.33838C1.55259 5.55937 0 7.25111 0 9.29888C0 11.5126 1.78778 13.3136 3.98524 13.3136C6.18866 13.3136 8 11.5017 8 9.29888C8 7.24999 6.43415 5.55751 4.42804 5.33799ZM3.98524 12.428C2.2761 12.428 0.885609 11.0243 0.885609 9.29888C0.885609 7.58977 2.2761 6.19925 3.98524 6.19925C5.71061 6.19925 7.11439 7.58977 7.11439 9.29888C7.11439 11.0243 5.71064 12.428 3.98524 12.428Z" fill="black"/>
</svg>
