<svg width="10" height="12" viewBox="0 0 10 12" fill="none" xmlns="http://www.w3.org/2000/svg">
    <path d="M4.99983 0C2.56404 0 0.582153 1.98189 0.582153 4.41792C0.582153 5.05333 0.712208 5.66 0.968509 6.22124C2.07305 8.63824 4.19076 11.1901 4.81365 11.9145C4.86032 11.9687 4.92835 11.9999 4.99995 11.9999C5.07155 11.9999 5.13958 11.9687 5.18625 11.9145C5.80889 11.1902 7.9266 8.63848 9.03151 6.22124C9.28794 5.66 9.41787 5.05333 9.41787 4.41792C9.41762 1.98189 7.43574 0 4.99983 0ZM4.99983 6.7126C3.73453 6.7126 2.70502 5.68309 2.70502 4.41779C2.70502 3.15237 3.73453 2.12287 4.99983 2.12287C6.26512 2.12287 7.29463 3.15237 7.29463 4.41779C7.29475 5.68309 6.26525 6.7126 4.99983 6.7126Z" fill="black"/>
</svg>
