<svg width="14" height="14" viewBox="0 0 14 14" fill="none" xmlns="http://www.w3.org/2000/svg">
    <path d="M6.99978 0C4.15803 0 1.84583 2.3122 1.84583 5.15424C1.84583 5.89555 1.99756 6.60334 2.29657 7.25811C3.58521 10.0779 6.05587 13.0551 6.78257 13.9003C6.83701 13.9635 6.91639 13.9999 6.99992 13.9999C7.08345 13.9999 7.16283 13.9635 7.21727 13.9003C7.94368 13.0552 10.4143 10.0782 11.7034 7.25811C12.0026 6.60334 12.1542 5.89555 12.1542 5.15424C12.1539 2.3122 9.84167 0 6.99978 0ZM6.99978 7.83136C5.5236 7.83136 4.32251 6.63027 4.32251 5.15409C4.32251 3.67777 5.5236 2.47668 6.99978 2.47668C8.47596 2.47668 9.67705 3.67777 9.67705 5.15409C9.67719 6.63027 8.4761 7.83136 6.99978 7.83136Z" fill="black"/>
</svg>
