<svg width="11" height="11" viewBox="0 0 11 11" fill="none" xmlns="http://www.w3.org/2000/svg">
    <path d="M10.6952 0H3.97301C3.80411 0 3.66744 0.136669 3.66744 0.305565V0.916667C3.66744 1.08556 3.80411 1.22223 3.97301 1.22223H8.91442L0.0902608 10.0463C0.031766 10.1048 0.00197425 10.1812 0.00082842 10.2578C-0.000374707 10.3375 0.0294743 10.4176 0.0902608 10.4785L0.522298 10.9105C0.579847 10.9681 0.65467 10.9979 0.730124 10.9999C0.81102 11.0021 0.89266 10.9722 0.954392 10.9105L9.77855 2.08636V7.02777C9.77855 7.19666 9.91522 7.33333 10.0841 7.33333H10.6952C10.8641 7.33333 11.0008 7.19666 11.0008 7.02777V0.305565C11.0008 0.136669 10.8641 0 10.6952 0Z" fill="black"/>
</svg>
